<?xml version="1.0" encoding="UTF-8"?>
<svg id="Warstwa_1" xmlns="http://www.w3.org/2000/svg" viewBox="0 0 800 800">
  <path d="M479.97,798.94v-6.63c0-51.07.09-102.14-.13-153.21-.02-5.07,1.48-7.28,6.1-9.2,83.72-34.85,135.34-97.1,150.6-187.02,19.78-116.53-47.57-228.28-156.93-266.77-132.84-46.75-274.33,28.92-311.48,165.68-31.79,117.03,30.56,242.5,142.86,286.81,7.2,2.84,9.26,6.29,9.21,13.89-.38,49.5-.2,99-.2,148.5,0,2.45,0,4.9,0,7.4C171.06,772.83,8.12,632.12.49,418.65-7.38,198.62,158.17,20.17,365.38,2.55c219.86-18.7,402.43,141.03,430.39,344.46,31.37,228.28-125.93,415-315.81,451.93Z"/>
</svg>