<?xml version="1.0" encoding="UTF-8"?>
<svg id="Warstwa_1" xmlns="http://www.w3.org/2000/svg" viewBox="0 0 800 800">
  <path d="M1.06,479.97h6.63c51.07,0,102.14.09,153.21-.13,5.07-.02,7.28,1.48,9.2,6.1,34.85,83.72,97.1,135.34,187.02,150.6,116.53,19.78,228.28-47.57,266.77-156.93,46.75-132.84-28.92-274.33-165.68-311.48-117.03-31.79-242.5,30.56-286.81,142.86-2.84,7.2-6.29,9.26-13.89,9.21-49.5-.38-99-.2-148.5-.2-2.45,0-4.9,0-7.4,0C27.17,171.06,167.88,8.12,381.35.49c220.03-7.87,398.47,157.68,416.1,364.9,18.7,219.86-141.03,402.43-344.46,430.39C224.71,827.15,38,669.84,1.06,479.97Z"/>
</svg>