<?xml version="1.0" encoding="UTF-8"?>
<svg id="Warstwa_1" xmlns="http://www.w3.org/2000/svg" viewBox="0 0 800 800">
  <path d="M797.88,319.81h-6.63c-51.07,0-102.14-.09-153.21.13-5.07.02-7.28-1.48-9.2-6.1-34.85-83.72-97.1-135.34-187.02-150.6-116.53-19.78-228.28,47.57-266.77,156.93-46.75,132.84,28.92,274.33,165.68,311.48,117.03,31.79,242.5-30.56,286.81-142.86,2.84-7.2,6.29-9.26,13.89-9.21,49.5.38,99,.2,148.5.2h7.4c-25.57,148.95-166.28,311.89-379.75,319.52C197.56,807.16,19.11,641.61,1.49,434.4-17.21,214.54,142.52,31.96,345.95,4.01c228.28-31.37,415,125.93,451.93,315.81Z"/>
</svg>