<?xml version="1.0" encoding="UTF-8"?>
<svg id="Warstwa_1" xmlns="http://www.w3.org/2000/svg" viewBox="0 0 800 800">
  <path d="M320.03,1.06v6.63c0,51.07-.09,102.14.13,153.21.02,5.07-1.48,7.28-6.1,9.2-83.72,34.85-135.34,97.1-150.6,187.02-19.78,116.53,47.57,228.28,156.93,266.77,132.84,46.75,274.33-28.92,311.48-165.68,31.79-117.03-30.56-242.5-142.86-286.81-7.2-2.84-9.26-6.29-9.21-13.89.38-49.5.2-99,.2-148.5V1.6c148.95,25.57,311.89,166.28,319.52,379.75,7.87,220.03-157.68,398.47-364.9,416.1C214.76,816.15,32.18,656.42,4.23,452.99-27.15,224.71,130.16,38,320.03,1.06Z"/>
</svg>